<svg width="900" height="100" xmlns="http://www.w3.org/2000/svg" version="1.1">
 <title>webspacer</title>
 <g>
  <title>Layer 1</title>
  <g id="svg_3">
   <path id="svg_1" fill="#191919" d="m0,56.15455l13.7,2.5c13.6,2.5 41,7.5 68.3,5c27.3,-2.5 54.7,-12.5 81.8,-17c27.2,-4.5 54.2,-3.5 81.4,-4c27.1,-0.5 54.5,-2.5 81.8,-2.5c27.3,0 54.7,2 82,6c27.3,4 54.7,10 82,14.5c27.3,4.5 54.7,7.5 82,5.5c27.3,-2 54.7,-9 81.8,-8.5c27.2,0.5 54.2,8.5 81.4,11c27.1,2.5 54.5,-0.5 81.8,-5.5c27.3,-5 54.7,-12 68.3,-15.5l13.7,-3.5l0,-71l-13.7,-11c-13.6,-11 -41,-33 -68.3,-35c-27.3,-2 -54.7,16 -81.8,20c-27.2,4 -54.2,-6 -81.4,-3.5c-27.1,2.5 -54.5,17.5 -81.8,29c-27.3,11.5 -54.7,19.5 -82,13c-27.3,-6.5 -54.7,-27.5 -82,-28c-27.3,-0.5 -54.7,19.5 -82,19.5c-27.3,0 -54.7,-20 -81.8,-25c-27.2,-5 -54.2,5 -81.4,5.5c-27.1,0.5 -54.5,-8.5 -81.8,-4.5c-27.3,4 -54.7,21 -68.3,29.5l-13.7,8.5l0,65z"/>
   <path id="svg_2" stroke="transparent"  fill="none" d="m0,101.15455l13.7,0c13.6,0 41,0 68.3,0c27.3,0 54.7,0 81.8,0c27.2,0 54.2,0 81.4,0c27.1,0 54.5,0 81.8,0c27.3,0 54.7,0 82,0c27.3,0 54.7,0 82,0c27.3,0 54.7,0 82,0c27.3,0 54.7,0 81.8,0c27.2,0 54.2,0 81.4,0c27.1,0 54.5,0 81.8,0c27.3,0 54.7,0 68.3,0l13.7,0l0,-59l-13.7,3.5c-13.6,3.5 -41,10.5 -68.3,15.5c-27.3,5 -54.7,8 -81.8,5.5c-27.2,-2.5 -54.2,-10.5 -81.4,-11c-27.1,-0.5 -54.5,6.5 -81.8,8.5c-27.3,2 -54.7,-1 -82,-5.5c-27.3,-4.5 -54.7,-10.5 -82,-14.5c-27.3,-4 -54.7,-6 -82,-6c-27.3,0 -54.7,2 -81.8,2.5c-27.2,0.5 -54.2,-0.5 -81.4,4c-27.1,4.5 -54.5,14.5 -81.8,17c-27.3,2.5 -54.7,-2.5 -68.3,-5l-13.7,-2.5l0,47z"/>
  </g>
 </g>

</svg>